<?xml version="1.0" encoding="UTF-8"?><svg id="uuid-cdd1880e-9132-43de-8ee0-2e772eaeb274" xmlns="http://www.w3.org/2000/svg" width="800" height="187.86" viewBox="0 0 800 187.86"><path d="M230.48,72.63h.55c4-6.43,13.38-18.23,32.94-18.23,30.55,0,43.96,26,43.96,66.72,0,35.66-12.33,66.74-53.86,66.74-33.51,0-53.33-19.04-53.33-57.08V0h29.74v72.63ZM254.08,166.96c19.02,0,22.24-24.95,22.24-45.84,0-23.03-2.41-47.7-22.24-47.7-17.95,0-23.59,26.27-23.59,47.7,0,31.88,4.84,45.84,23.59,45.84Z" fill="#fff"/><path d="M325.34,0h29.74v184.92h-29.74V0Z" fill="#fff"/><path d="M472.19,182.75c-10.74,3.5-21.98,5.11-35.67,5.11-41.25,0-64.29-26.53-64.29-73.42,0-35.65,16.07-60.04,54.67-60.04,32.41,0,48.5,20.63,48.5,51.71v7.25h-75.58c0,17.67,12.07,53.6,47.98,53.6,9.38,0,19.01-2.96,24.4-4.83v20.61ZM447.27,95.4c0-8.03-4.02-21.98-22.54-21.98-17.38,0-23.3,14.47-24.12,21.98h46.66Z" fill="#fff"/><path d="M556.59,84.41c-3.22-1.61-15.3-8.57-28.42-8.57-9.09,0-19.84,4.29-19.84,11.79,0,16.87,56.03,25.45,56.03,61.91,0,26.25-20.13,38.32-48.26,38.32-17.4,0-27.86-3.21-33.74-5.11v-25.72c8.58,3.75,20.35,7.78,32.41,7.78,7.24,0,21.98-1.34,21.98-11.53,0-15.01-54.93-27.61-54.93-61.37,0-23.85,18.22-37.51,45.84-37.51,12.57,0,22.77,3.22,28.95,4.83v25.18Z" fill="#fff"/><path d="M651.7,185.71c-8.05,1.33-16.34,2.15-24.39,2.15-33.76,0-39.13-16.09-39.13-35.1v-74.77h-24.92v-20.62h24.92v-30.3l29.76-17.95v48.25h37.8v20.62h-37.8v60.29c0,15.3,1.88,28.69,20.08,28.69,4.84,0,9.38-1.08,13.69-2.15v20.9Z" fill="#fff"/><path d="M726.99,170.15h-.55c-4.02,8.33-12.83,17.71-33.21,17.71-21.45,0-37.51-12.88-37.51-33.49,0-42.35,53.57-42.64,71.26-43.15v-12.6c0-12.6-3.2-23.31-17.97-23.31-16.34,0-19.54,10.99-19.54,19.57h-28.95c0-24.39,16.08-40.48,48.49-40.48s46.36,13.66,46.36,39.66v90.86h-28.39v-14.77ZM700.44,166.96c19.32,0,26.54-20.92,26.54-38.32-19.31,0-42.33,5.87-42.33,23.03,0,9.9,5.6,15.29,15.79,15.29Z" fill="#fff"/><path d="M759.98,35.05h-7.15v-4.12h18.61v4.12h-7.14v24.26h-4.32v-24.26ZM774.65,30.93h7.83l4.7,22.31h.2l4.8-22.31h7.83v28.38h-4.29v-25.64h-.2l-5.58,25.64h-5.17l-5.58-25.64h-.2v25.64h-4.32v-28.38Z" fill="#fff"/><path d="M46.66,91.06h17.16c5.41,0,9.82-4.42,9.82-9.83v-17.17c0-5.41-4.42-9.82-9.82-9.82h-17.16c-5.42,0-9.83,4.41-9.83,9.82v17.17c0,5.41,4.41,9.83,9.83,9.83Z" fill="#fff"/><path d="M137.47,91.06c5.4,0,9.83-4.42,9.83-9.83v-17.17c0-5.41-4.43-9.82-9.83-9.82h-17.16c-5.41,0-9.84,4.41-9.84,9.82v17.17c0,5.41,4.44,9.83,9.84,9.83h17.16Z" fill="#fff"/><path d="M174.3,114.08h-17.16c-5.4,0-9.83,4.44-9.83,9.85v17.17c0,5.4-4.43,9.8-9.83,9.8H46.66c-5.42,0-9.83-4.41-9.83-9.8v-17.17c0-5.41-4.43-9.85-9.84-9.85H9.82c-5.4,0-9.82,4.44-9.82,9.85v17.17c0,5.4,4.42,9.8,9.82,9.8h17.16c5.41,0,9.84,4.43,9.84,9.82v17.18c0,5.42,4.41,9.83,9.83,9.83h90.81c5.4,0,9.83-4.41,9.83-9.83v-17.18c0-5.39,4.44-9.82,9.83-9.82h17.16c5.4,0,9.84-4.41,9.84-9.8v-17.17c0-5.41-4.44-9.85-9.84-9.85Z" fill="#fff"/></svg>